<?xml version="1.0" encoding="iso-8859-1"?>
<!-- Uploaded to: SVG Repo, www.svgrepo.com, Generator: SVG Repo Mixer Tools -->
<svg fill="#000000" version="1.1" id="Layer_1" xmlns="http://www.w3.org/2000/svg" xmlns:xlink="http://www.w3.org/1999/xlink" 
	 viewBox="0 0 491.52 491.52" xml:space="preserve">
<g>
	<g>
		<path d="M0,0v491.52h491.52V0H0z M72.984,471.04c-6.346-17.174-10.041-35.034-11.049-53.33h70.085
			c0.495,18.199,2.289,36.045,5.393,53.33H72.984z M132.034,397.23H61.934c2.271-41.451,18.219-80.302,45.73-111.374
			c11.331,10.43,23.578,19.496,36.657,27.004C137.125,338.194,132.838,366.736,132.034,397.23z M122.027,271.28
			c18.481-16.883,39.776-29.587,62.876-37.666c-13.615,15.196-25.28,35.272-34.139,59.205
			C140.589,286.65,130.982,279.461,122.027,271.28z M235.52,471.04h-77.266c-3.302-17.222-5.229-35.077-5.754-53.33h83.021V471.04z
			 M235.52,397.23h-83.013c0.787-26.679,4.534-52.06,10.708-74.771c22.605,9.986,47.009,15.676,72.304,16.916V397.23z
			 M235.52,318.896c-23.177-1.263-45.483-6.741-66.101-16.161c15.204-42.394,39.106-72.244,66.101-78.352V318.896z M333.265,471.04
			H256v-53.33h83.021C338.494,435.951,336.566,453.806,333.265,471.04z M328.304,322.459c6.174,22.711,9.921,48.091,10.708,74.771
			H256v-57.854C281.295,338.135,305.699,332.445,328.304,322.459z M256,318.896v-94.514c26.994,6.109,50.897,35.959,66.101,78.352
			C301.482,312.154,279.177,317.633,256,318.896z M306.619,233.617c23.093,8.078,44.384,20.78,62.871,37.666
			c-8.955,8.18-18.56,15.368-28.734,21.537C331.898,268.888,320.233,248.812,306.619,233.617z M418.536,471.04h-64.43
			c3.104-17.299,4.899-35.146,5.394-53.33h70.085C428.577,436.006,424.882,453.866,418.536,471.04z M359.486,397.23
			c-0.804-30.494-5.091-59.036-12.288-84.37c13.079-7.509,25.325-16.574,36.656-27.004c27.504,31.052,43.459,69.912,45.731,111.374
			H359.486z M471.04,471.04h-30.789c6.731-20.499,10.309-41.791,10.309-63.57c0-54.02-20.855-104.94-58.695-143.35
			c-38.77-39.63-90.655-61.45-146.105-61.45s-107.335,21.82-146.08,61.42c-37.865,38.44-58.72,89.36-58.72,143.38
			c0,21.779,3.579,43.071,10.309,63.57H20.48V102.4h450.56V471.04z M471.04,81.92H20.48V20.48h450.56V81.92z"/>
	</g>
</g>
<g>
	<g>
		<rect x="430.08" y="40.96" width="20.48" height="20.48"/>
	</g>
</g>
<g>
	<g>
		<rect x="389.12" y="40.96" width="20.48" height="20.48"/>
	</g>
</g>
<g>
	<g>
		<rect x="348.16" y="40.96" width="20.48" height="20.48"/>
	</g>
</g>
<g>
	<g>
		<rect x="51.2" y="40.96" width="245.76" height="20.48"/>
	</g>
</g>
</svg>